<?xml version="1.0" encoding="UTF-8"?>
<svg version="1.1" xmlns="http://www.w3.org/2000/svg" width="74" height="78">
<path d="M0 0 C24.42 0 48.84 0 74 0 C74 25.74 74 51.48 74 78 C49.58 78 25.16 78 0 78 C0 52.26 0 26.52 0 0 Z " fill="#D62029" transform="translate(0,0)"/>
<path d="M0 0 C24.42 0 48.84 0 74 0 C74 25.74 74 51.48 74 78 C49.58 78 25.16 78 0 78 C0 52.26 0 26.52 0 0 Z M11 21 C6.05094531 28.75276228 4.23220423 35.85754296 5 45 C6.03816375 48.58991365 6.03816375 48.58991365 8 52 C8.41378906 52.80566406 8.82757813 53.61132812 9.25390625 54.44140625 C14.00276513 63.12392479 20.08265602 67.92216253 29.36328125 71.3046875 C37.87840906 73.55015824 45.33083871 72.09617433 53 68 C61.19797928 63.1922724 66.50963466 56.19171208 69 47 C69.95851904 36.96898679 69.57704488 27.96914147 63.3046875 19.7890625 C57.67693303 13.66005055 49.67833977 8.48580466 41.21484375 7.76171875 C28.20344197 7.46706245 19.67666598 11.10798541 11 21 Z " fill="#040101" transform="translate(0,0)"/>
<path d="M0 0 C2.8125 1.3125 2.8125 1.3125 5 3 C6.2388826 6.71664781 6.66735012 10.14333707 6 14 C3.88866702 16.63916623 2.36161081 17.68704913 -0.9375 18.4453125 C-3.16119502 18.63904351 -4.83988051 18.57051543 -7 18 C-10.55464822 14.96373798 -11.80178451 13.02711664 -12.6875 8.4375 C-12 5 -12 5 -9.375 2.0625 C-5.69744087 -0.18489725 -4.20296115 -0.71539764 0 0 Z " fill="#FBF6F6" transform="translate(51,18)"/>
</svg>
